# xmcd CD database file
#
# Track frame offsets:
#	150
#	20865
#	38344
#	56875
#	85267
#	96523
#	114048
#	132158
#	143894
#	162112
#	176373
#
# Disc length: 2486 seconds
#
# Revision: 1
# Processed by: cddbd v1.4PL0 Copyright (c) Steve Scherf et al.
# Submitted via: CDex 1.50
#
DISCID=8a09b40b
DTITLE=Staphane Grappelli - Tiger Rag Revisited
DYEAR=1900
DGENRE=Jazz
TTITLE0=The Man I Love
TTITLE1=Tea For Two
TTITLE2=Killing Me Softly With His Song
TTITLE3=Birth Of The Blues
TTITLE4=I Can't Give You Anything But Love
TTITLE5=Tiger Rag
TTITLE6=Lady Be Good
TTITLE7=Limehouse Blues
TTITLE8=The Nearness Of You
TTITLE9=Sweet Georgia Brown
TTITLE10=After you've Gone
EXTD=
EXTT0=
EXTT1=
EXTT2=
EXTT3=
EXTT4=
EXTT5=
EXTT6=
EXTT7=
EXTT8=
EXTT9=
EXTT10=
PLAYORDER=
